<svg width="1579" height="322" viewBox="0 0 1579 322" xmlns="http://www.w3.org/2000/svg"><title>website-title</title><path d="M0 252h300v48H0v-48zM0 0h300v202H0V0zm451.434 55.206c-6.664-8.134-14.896-12.201-24.696-12.201-4.312 0-8.305.784-11.98 2.352-3.676 1.568-6.836 3.7-9.482 6.395-2.646 2.695-4.728 5.904-6.248 9.628-1.519 3.724-2.278 7.742-2.278 12.054 0 4.41.76 8.477 2.279 12.201s3.625 6.958 6.32 9.702c2.696 2.744 5.856 4.9 9.482 6.468 3.626 1.568 7.546 2.352 11.76 2.352 9.212 0 17.493-3.92 24.843-11.76v34.104l-2.94 1.029c-4.41 1.568-8.526 2.72-12.348 3.454a59.836 59.836 0 0 1-11.319 1.103c-7.644 0-14.97-1.445-21.976-4.336-7.008-2.892-13.181-6.958-18.522-12.202-5.342-5.243-9.629-11.465-12.863-18.669-3.234-7.203-4.851-15.067-4.851-23.593s1.592-16.341 4.777-23.447c3.186-7.105 7.448-13.23 12.79-18.375 5.34-5.145 11.539-9.162 18.595-12.053 7.056-2.892 14.455-4.337 22.197-4.337 4.41 0 8.746.465 13.01 1.396 4.263.932 8.746 2.377 13.45 4.337v34.398zm32.249 35.721c0 2.548.465 4.875 1.396 6.982.931 2.108 2.156 3.945 3.675 5.513 1.52 1.568 3.332 2.793 5.44 3.675 2.106.882 4.336 1.323 6.688 1.323 2.352 0 4.581-.441 6.688-1.323 2.107-.882 3.92-2.107 5.44-3.675 1.518-1.568 2.743-3.405 3.674-5.513.931-2.107 1.397-4.385 1.397-6.835 0-2.352-.466-4.581-1.397-6.689-.93-2.107-2.156-3.944-3.675-5.512-1.519-1.568-3.332-2.793-5.439-3.675-2.107-.882-4.336-1.323-6.688-1.323-2.352 0-4.582.441-6.689 1.323-2.107.882-3.92 2.107-5.439 3.675a19.001 19.001 0 0 0-3.675 5.439c-.93 2.058-1.396 4.263-1.396 6.615zm-28.077-.294c0-5.586 1.127-10.804 3.38-15.655a38.446 38.446 0 0 1 9.409-12.642c4.018-3.578 8.795-6.395 14.332-8.453 5.537-2.058 11.589-3.087 18.155-3.087 6.468 0 12.47 1.004 18.007 3.014 5.537 2.009 10.34 4.801 14.406 8.378a37.587 37.587 0 0 1 9.482 12.79c2.254 4.949 3.38 10.412 3.38 16.39s-1.15 11.441-3.454 16.39c-2.303 4.95-5.463 9.212-9.481 12.79-4.018 3.577-8.845 6.345-14.48 8.305s-11.735 2.94-18.301 2.94c-6.468 0-12.446-.98-17.934-2.94-5.488-1.96-10.217-4.753-14.186-8.379-3.969-3.626-7.08-7.962-9.334-13.01-2.254-5.047-3.381-10.657-3.381-16.831zm97.223-37.044h26.607v9.261c7.252-6.958 15.385-10.437 24.402-10.437 11.172 0 19.697 4.704 25.578 14.112 5.978-9.506 14.503-14.259 25.578-14.259 3.528 0 6.86.514 9.996 1.544 3.136 1.029 5.83 2.645 8.085 4.85 2.254 2.206 4.042 5.072 5.365 8.6 1.323 3.528 1.985 7.791 1.985 12.789V129h-26.607V91.809c0-3.822-.27-6.958-.809-9.408-.539-2.45-1.323-4.361-2.352-5.733-1.029-1.372-2.23-2.303-3.601-2.793-1.372-.49-2.842-.735-4.41-.735-8.527 0-12.79 6.223-12.79 18.669V129H603.25V91.809c0-3.822-.245-6.982-.735-9.481-.49-2.5-1.201-4.484-2.132-5.954-.931-1.47-2.131-2.474-3.601-3.013-1.47-.54-3.185-.809-5.145-.809-1.666 0-3.234.245-4.704.735-1.47.49-2.769 1.445-3.896 2.866-1.127 1.422-2.009 3.381-2.646 5.88-.637 2.5-.955 5.758-.955 9.776V129h-26.607V53.589zm137.206 0h26.607v9.261c7.252-6.958 15.386-10.437 24.402-10.437 11.172 0 19.698 4.704 25.578 14.112 5.978-9.506 14.504-14.259 25.578-14.259 3.528 0 6.86.514 9.996 1.544 3.136 1.029 5.831 2.645 8.085 4.85 2.254 2.206 4.043 5.072 5.366 8.6 1.323 3.528 1.984 7.791 1.984 12.789V129h-26.607V91.809c0-3.822-.27-6.958-.808-9.408-.54-2.45-1.323-4.361-2.352-5.733-1.03-1.372-2.23-2.303-3.602-2.793-1.372-.49-2.842-.735-4.41-.735-8.526 0-12.789 6.223-12.789 18.669V129h-26.607V91.809c0-3.822-.245-6.982-.735-9.481-.49-2.5-1.2-4.484-2.131-5.954-.931-1.47-2.132-2.474-3.602-3.013-1.47-.54-3.185-.809-5.145-.809-1.666 0-3.234.245-4.704.735-1.47.49-2.768 1.445-3.895 2.866-1.127 1.422-2.01 3.381-2.646 5.88-.637 2.5-.956 5.758-.956 9.776V129h-26.607V53.589zm192.332 26.754c-.882-3.724-2.695-6.713-5.439-8.967-2.744-2.254-6.076-3.381-9.996-3.381-4.116 0-7.472 1.078-10.07 3.234-2.596 2.156-4.238 5.194-4.924 9.114h30.429zm-31.164 15.435c0 11.466 5.39 17.199 16.17 17.199 5.782 0 10.143-2.352 13.083-7.056h25.725c-5.194 17.248-18.179 25.872-38.955 25.872-6.37 0-12.201-.955-17.493-2.867-5.292-1.91-9.824-4.63-13.597-8.158-3.774-3.528-6.689-7.742-8.747-12.642-2.058-4.9-3.087-10.388-3.087-16.464 0-6.272.98-11.931 2.94-16.979 1.96-5.047 4.753-9.334 8.379-12.862 3.626-3.528 8.011-6.247 13.157-8.158 5.145-1.912 10.951-2.867 17.419-2.867 6.37 0 12.103.955 17.199 2.867 5.096 1.91 9.408 4.679 12.936 8.305 3.528 3.626 6.223 8.06 8.085 13.303 1.862 5.244 2.793 11.148 2.793 17.714v2.793h-56.007zm62.53-42.189h26.608v9.555c3.626-4.41 7.3-7.374 11.025-8.893 3.724-1.52 8.085-2.279 13.083-2.279 5.292 0 9.824.857 13.597 2.572 3.773 1.716 6.983 4.141 9.629 7.277 2.156 2.548 3.626 5.39 4.41 8.526.784 3.136 1.176 6.713 1.176 10.731V129h-26.607V90.927c0-3.724-.27-6.737-.809-9.04-.539-2.304-1.494-4.141-2.866-5.513-1.176-1.176-2.5-2.009-3.97-2.499-1.47-.49-3.037-.735-4.703-.735-4.508 0-7.963 1.347-10.364 4.043-2.4 2.695-3.601 6.541-3.601 11.539V129h-26.607V53.589zm118.686 22.197V129h-26.607V75.786h-8.82V53.589h8.82V30.951h26.607v22.638h15.14v22.197h-15.14zM1153.07 87.84l-12.936-36.897-12.936 36.897h25.872zm7.644 21.903h-41.16L1112.939 129h-30.723l42.189-110.838h31.458L1198.052 129h-30.723l-6.615-19.257zm65.618-56.154v42.483c0 9.31 4.508 13.965 13.524 13.965 9.016 0 13.524-4.655 13.524-13.965V53.589h26.607v47.628c0 10.192-3.357 17.836-10.07 22.932s-16.733 7.644-30.061 7.644-23.349-2.548-30.062-7.644c-6.713-5.096-10.07-12.74-10.07-22.932V53.589h26.608zm92.813 22.197V129h-26.607V75.786h-8.82V53.589h8.82V30.951h26.607v22.638h15.14v22.197h-15.14zm19.9-68.796h26.607v56.154c3.626-4.41 7.301-7.374 11.025-8.893 3.724-1.52 8.085-2.279 13.083-2.279 9.506 0 16.685 2.621 21.536 7.864 4.85 5.244 7.276 12.324 7.276 21.242V129h-26.607V90.927c0-3.822-.294-6.909-.882-9.261-.588-2.352-1.568-4.165-2.94-5.439-2.352-2.058-5.194-3.087-8.526-3.087-4.508 0-7.962 1.347-10.363 4.043-2.401 2.695-3.602 6.541-3.602 11.539V129h-26.607V6.99zm114.128 83.937c0 2.548.466 4.875 1.397 6.982.93 2.108 2.156 3.945 3.675 5.513 1.519 1.568 3.332 2.793 5.439 3.675 2.107.882 4.336 1.323 6.688 1.323 2.352 0 4.582-.441 6.689-1.323 2.107-.882 3.92-2.107 5.439-3.675 1.519-1.568 2.744-3.405 3.675-5.513.93-2.107 1.396-4.385 1.396-6.835 0-2.352-.465-4.581-1.396-6.689-.931-2.107-2.156-3.944-3.675-5.512-1.52-1.568-3.332-2.793-5.44-3.675-2.106-.882-4.336-1.323-6.688-1.323-2.352 0-4.581.441-6.688 1.323-2.107.882-3.92 2.107-5.44 3.675a19.001 19.001 0 0 0-3.674 5.439c-.931 2.058-1.397 4.263-1.397 6.615zm-28.077-.294c0-5.586 1.127-10.804 3.381-15.655 2.254-4.852 5.39-9.065 9.408-12.642 4.018-3.578 8.796-6.395 14.333-8.453 5.537-2.058 11.588-3.087 18.154-3.087 6.468 0 12.47 1.004 18.008 3.014 5.537 2.009 10.339 4.801 14.406 8.378a37.587 37.587 0 0 1 9.481 12.79c2.254 4.949 3.381 10.412 3.381 16.39s-1.151 11.441-3.454 16.39c-2.303 4.95-5.464 9.212-9.482 12.79-4.018 3.577-8.844 6.345-14.48 8.305-5.634 1.96-11.735 2.94-18.301 2.94-6.468 0-12.446-.98-17.934-2.94-5.488-1.96-10.216-4.753-14.185-8.379-3.97-3.626-7.08-7.962-9.335-13.01-2.254-5.047-3.38-10.657-3.38-16.831zm97.223-37.044h26.607v12.348c2.842-4.508 6.32-7.962 10.437-10.363 4.116-2.402 8.918-3.602 14.406-3.602h2.278c.833 0 1.789.098 2.867.294v25.431c-3.528-1.764-7.35-2.646-11.466-2.646-6.174 0-10.805 1.837-13.892 5.513-3.087 3.675-4.63 9.04-4.63 16.096V129h-26.607V53.589zM400.425 222.701h5.439c5.684 0 10.045-1.176 13.083-3.528 3.038-2.352 4.557-5.733 4.557-10.143 0-4.41-1.519-7.791-4.557-10.143-3.038-2.352-7.399-3.528-13.083-3.528h-5.439v27.342zM463.782 284h-35.868l-27.489-42.63V284h-28.812V173.162h44.835c6.174 0 11.564.906 16.17 2.72 4.606 1.813 8.403 4.287 11.392 7.423 2.99 3.136 5.243 6.762 6.762 10.878 1.52 4.116 2.279 8.526 2.279 13.23 0 8.428-2.033 15.263-6.1 20.506-4.068 5.244-10.07 8.796-18.008 10.658L463.782 284zm23.87-38.073c0 2.548.465 4.875 1.396 6.983.931 2.107 2.156 3.944 3.675 5.512 1.52 1.568 3.332 2.793 5.44 3.675 2.106.882 4.336 1.323 6.688 1.323 2.352 0 4.581-.441 6.688-1.323 2.107-.882 3.92-2.107 5.44-3.675 1.518-1.568 2.743-3.405 3.674-5.513.931-2.107 1.397-4.385 1.397-6.835 0-2.352-.466-4.581-1.397-6.689-.93-2.107-2.156-3.944-3.675-5.512-1.519-1.568-3.332-2.793-5.439-3.675-2.107-.882-4.336-1.323-6.688-1.323-2.352 0-4.582.441-6.689 1.323-2.107.882-3.92 2.107-5.439 3.675a19.001 19.001 0 0 0-3.675 5.439c-.93 2.058-1.396 4.263-1.396 6.615zm-28.077-.294c0-5.586 1.127-10.804 3.38-15.656a38.477 38.477 0 0 1 9.409-12.642c4.018-3.577 8.795-6.394 14.332-8.452 5.537-2.058 11.589-3.087 18.155-3.087 6.468 0 12.47 1.004 18.007 3.014 5.537 2.009 10.34 4.801 14.406 8.379a37.587 37.587 0 0 1 9.482 12.788c2.254 4.95 3.38 10.413 3.38 16.391 0 5.978-1.15 11.441-3.454 16.39-2.303 4.95-5.463 9.212-9.481 12.79-4.018 3.577-8.845 6.345-14.48 8.305s-11.735 2.94-18.301 2.94c-6.468 0-12.446-.98-17.934-2.94-5.488-1.96-10.217-4.753-14.186-8.379-3.969-3.626-7.08-7.962-9.334-13.01-2.254-5.047-3.381-10.657-3.381-16.831zm123.83-83.643V284h-26.607V161.99h26.607zm64.735 73.353c-.882-3.724-2.695-6.713-5.439-8.967-2.744-2.254-6.076-3.381-9.996-3.381-4.116 0-7.472 1.078-10.07 3.234-2.596 2.156-4.238 5.194-4.924 9.114h30.43zm-31.164 15.435c0 11.466 5.39 17.199 16.17 17.199 5.782 0 10.143-2.352 13.083-7.056h25.725c-5.194 17.248-18.179 25.872-38.955 25.872-6.37 0-12.2-.955-17.493-2.867-5.292-1.91-9.824-4.63-13.597-8.158-3.773-3.528-6.689-7.742-8.747-12.642-2.058-4.9-3.087-10.388-3.087-16.464 0-6.272.98-11.931 2.94-16.978 1.96-5.048 4.753-9.335 8.38-12.863 3.625-3.528 8.01-6.247 13.156-8.159 5.145-1.91 10.951-2.866 17.42-2.866 6.37 0 12.102.955 17.198 2.867 5.096 1.91 9.408 4.679 12.936 8.305 3.528 3.626 6.223 8.06 8.085 13.304 1.862 5.243 2.793 11.147 2.793 17.713v2.793h-56.007zm135.205 10.878h6.32c7.253 0 12.447-.931 15.583-2.793 3.136-1.862 4.704-4.851 4.704-8.967 0-4.116-1.568-7.105-4.704-8.967-3.136-1.862-8.33-2.793-15.582-2.793h-6.321v23.52zm0-44.982h5.292c9.016 0 13.524-3.577 13.524-10.731s-4.508-10.731-13.524-10.731h-5.292v21.462zm-28.812-43.512h42.924c10.192 0 17.934 2.45 23.226 7.35 5.292 4.9 7.938 11.956 7.938 21.168 0 5.586-1.005 10.216-3.014 13.891-2.009 3.676-5.071 6.787-9.187 9.335 4.116.784 7.62 1.984 10.51 3.601 2.891 1.618 5.243 3.602 7.056 5.954 1.813 2.352 3.112 4.998 3.896 7.938.784 2.94 1.176 6.076 1.176 9.408 0 5.194-.907 9.8-2.72 13.818-1.813 4.018-4.36 7.399-7.644 10.143-3.283 2.744-7.276 4.802-11.98 6.174-4.704 1.372-9.996 2.058-15.876 2.058h-46.305V173.162zm115.304 72.912c0 2.45.44 4.728 1.323 6.835.882 2.108 2.082 3.945 3.601 5.513 1.519 1.568 3.332 2.793 5.439 3.675 2.107.882 4.386 1.323 6.836 1.323 2.352 0 4.581-.441 6.688-1.323 2.107-.882 3.92-2.107 5.439-3.675a19.001 19.001 0 0 0 3.675-5.439c.931-2.058 1.397-4.263 1.397-6.615 0-2.352-.466-4.581-1.397-6.689-.931-2.107-2.156-3.944-3.675-5.512-1.519-1.568-3.332-2.793-5.439-3.675-2.107-.882-4.336-1.323-6.688-1.323-2.45 0-4.729.441-6.836 1.323-2.107.882-3.92 2.107-5.439 3.675a18.114 18.114 0 0 0-3.601 5.365c-.882 2.01-1.323 4.19-1.323 6.542zm33.516-37.485h26.754V284h-26.754v-8.379c-5.685 7.154-13.377 10.731-23.08 10.731-5.488 0-10.534-1.004-15.14-3.013a36.514 36.514 0 0 1-12.054-8.453c-3.43-3.626-6.101-7.889-8.012-12.789-1.911-4.9-2.866-10.241-2.866-16.023 0-5.39.93-10.51 2.793-15.362 1.862-4.85 4.459-9.089 7.79-12.715 3.333-3.626 7.302-6.492 11.908-8.6 4.606-2.107 9.701-3.16 15.288-3.16 9.408 0 17.198 3.283 23.373 9.849v-7.497zm60.913 37.485c0 2.45.441 4.728 1.323 6.835.882 2.108 2.083 3.945 3.602 5.513 1.519 1.568 3.332 2.793 5.439 3.675 2.107.882 4.385 1.323 6.835 1.323 2.352 0 4.582-.441 6.689-1.323 2.107-.882 3.92-2.107 5.439-3.675a19.001 19.001 0 0 0 3.675-5.439c.93-2.058 1.396-4.263 1.396-6.615 0-2.352-.465-4.581-1.396-6.689-.931-2.107-2.156-3.944-3.675-5.512-1.52-1.568-3.332-2.793-5.44-3.675-2.106-.882-4.336-1.323-6.688-1.323-2.352 0-4.581.441-6.688 1.323-2.107.882-3.92 2.107-5.44 3.675a19.336 19.336 0 0 0-3.674 5.365c-.931 2.01-1.397 4.19-1.397 6.542zm33.516-84.084h26.754V284h-26.754v-8.379c-5.684 7.154-13.377 10.731-23.079 10.731-5.488 0-10.535-1.029-15.14-3.087-4.607-2.058-8.625-4.9-12.055-8.526-3.43-3.626-6.1-7.889-8.011-12.789-1.911-4.9-2.867-10.192-2.867-15.876 0-5.39.907-10.51 2.72-15.362 1.813-4.85 4.385-9.089 7.717-12.715 3.332-3.626 7.326-6.492 11.98-8.6 4.656-2.107 9.776-3.16 15.362-3.16 9.408 0 17.2 3.283 23.373 9.849V161.99zm60.914 83.937c0 2.45.441 4.728 1.323 6.835.882 2.108 2.083 3.945 3.602 5.513 1.519 1.568 3.332 2.793 5.439 3.675 2.107.882 4.385 1.323 6.835 1.323 2.352 0 4.582-.441 6.689-1.323 2.107-.882 3.92-2.107 5.439-3.675 1.519-1.568 2.744-3.405 3.675-5.512a16.366 16.366 0 0 0 1.396-6.689c0-2.45-.465-4.704-1.396-6.762a18.273 18.273 0 0 0-3.749-5.439 16.984 16.984 0 0 0-5.512-3.675 16.782 16.782 0 0 0-6.542-1.323c-2.352 0-4.557.465-6.615 1.397a19.001 19.001 0 0 0-5.439 3.674c-1.568 1.52-2.817 3.308-3.748 5.366s-1.397 4.263-1.397 6.615zm59.682-37.338v70.266c0 4.214-.245 7.987-.735 11.319-.49 3.332-1.176 6.272-2.058 8.82-1.176 3.234-3.013 6.247-5.512 9.04-2.5 2.794-5.513 5.219-9.041 7.277-3.528 2.058-7.521 3.675-11.98 4.851-4.46 1.176-9.286 1.764-14.48 1.764-5.88 0-11.27-.735-16.17-2.205-4.9-1.47-9.187-3.503-12.862-6.1-3.675-2.598-6.689-5.635-9.041-9.114a30.238 30.238 0 0 1-4.704-11.393h29.988c1.862 4.998 6.076 7.497 12.642 7.497 5.586 0 9.874-1.568 12.863-4.704 2.989-3.136 4.483-7.497 4.483-13.083v-7.203c-1.96 1.862-3.846 3.405-5.66 4.63a32.116 32.116 0 0 1-5.512 3.014 26.192 26.192 0 0 1-5.88 1.69c-2.058.344-4.312.515-6.762.515-5.39 0-10.339-.931-14.847-2.793-4.508-1.862-8.403-4.459-11.686-7.791-3.283-3.332-5.831-7.325-7.644-11.98-1.813-4.656-2.72-9.825-2.72-15.509 0-5.782.98-11.147 2.94-16.096 1.96-4.95 4.63-9.261 8.012-12.936 3.38-3.676 7.399-6.566 12.054-8.674 4.655-2.107 9.726-3.16 15.214-3.16 8.918 0 16.415 3.332 22.491 9.996v-7.938h26.607zm66.353 26.754c-.882-3.724-2.695-6.713-5.44-8.967-2.743-2.254-6.075-3.381-9.995-3.381-4.116 0-7.473 1.078-10.07 3.234-2.597 2.156-4.238 5.194-4.924 9.114h30.429zm-31.164 15.435c0 11.466 5.39 17.199 16.17 17.199 5.782 0 10.143-2.352 13.083-7.056h25.725c-5.194 17.248-18.18 25.872-38.955 25.872-6.37 0-12.201-.955-17.493-2.867-5.292-1.91-9.825-4.63-13.598-8.158-3.773-3.528-6.688-7.742-8.746-12.642-2.058-4.9-3.087-10.388-3.087-16.464 0-6.272.98-11.931 2.94-16.978 1.96-5.048 4.753-9.335 8.379-12.863 3.626-3.528 8.011-6.247 13.156-8.159 5.145-1.91 10.952-2.866 17.42-2.866 6.37 0 12.103.955 17.199 2.867 5.096 1.91 9.408 4.679 12.936 8.305 3.528 3.626 6.223 8.06 8.085 13.304 1.862 5.243 2.793 11.147 2.793 17.713v2.793h-56.007z" fill="#99E71E" fill-rule="evenodd"/></svg>